<?xml version="1.0" encoding="utf-8"?>
<!-- Generator: Adobe Illustrator 28.0.0, SVG Export Plug-In . SVG Version: 6.00 Build 0)  -->
<svg version="1.1" id="uuid-07176949-2bbf-44c2-b080-2afb3026c526"
	 xmlns="http://www.w3.org/2000/svg" xmlns:xlink="http://www.w3.org/1999/xlink" x="0px" y="0px" viewBox="0 0 592.4 391.5"
	 style="enable-background:new 0 0 592.4 391.5;" xml:space="preserve">
<path d="M592.3,80H421.1c-22.9,0-49.2,6.2-64.7-13.9c-6.5-8.4-8-20.4-14.9-28.4C328.3,22.5,313.9,25,295,25V0.2
	c18.8,0,33.2-2.5,46.4,12.7c6.9,8,8.4,20.1,14.9,28.4c15.5,20.1,41.8,13.9,64.7,13.9h171.3V80L592.3,80z"/>
<path d="M592.3,131.8H421.1c-22.9,0-49.2,6.2-64.7-13.9c-6.5-8.4-8-20.4-14.9-28.4c-13.2-15.2-27.6-12.7-46.4-12.7V51.9
	c18.8,0,33.2-2.5,46.4,12.7c6.9,8,8.4,20.1,14.9,28.4c15.5,20.1,41.8,13.9,64.7,13.9h171.3V131.8z"/>
<path d="M592.3,183.6H421.1c-22.9,0-49.2,6.2-64.7-13.9c-6.5-8.4-8-20.4-14.9-28.4c-13.2-15.2-27.6-12.7-46.4-12.7v-24.9
	c18.8,0,33.2-2.5,46.4,12.7c6.9,8,8.4,20.1,14.9,28.4c15.5,20.1,41.8,13.9,64.7,13.9h171.3V183.6z"/>
<path d="M592.3,235.4H421.1c-22.9,0-49.2,6.2-64.7-13.9c-6.5-8.4-8-20.4-14.9-28.4c-13.2-15.2-27.6-12.7-46.4-12.7v-24.9
	c18.8,0,33.2-2.5,46.4,12.7c6.9,8,8.4,20.1,14.9,28.4c15.5,20.1,41.8,13.9,64.7,13.9h171.3V235.4z"/>
<path d="M592.3,287.1H421c-25.3,0-51.1,6.3-66.6-17.3c-11.4-17.2-12.8-33.9-35.6-37.7c-22.5-3.8-49.5,0-72.2,0H0v-24.9h246.5
	c22.7,0,49.8-3.8,72.2,0c22.8,3.8,24.2,20.5,35.6,37.7c15.6,23.6,41.3,17.3,66.6,17.3h171.3V287.1z"/>
<path d="M592.3,338.9H421c-25.3,0-51.1,6.3-66.6-17.3c-11.4-17.2-12.8-33.9-35.6-37.7c-22.5-3.8-49.5,0-72.2,0H0V259h246.5
	c22.7,0,49.8-3.8,72.2,0c22.8,3.8,24.2,20.5,35.6,37.7c15.6,23.6,41.3,17.3,66.6,17.3h171.3V338.9L592.3,338.9z"/>
<path d="M592.3,390.7H421c-25.3,0-51.1,6.3-66.6-17.3c-11.4-17.2-12.8-33.9-35.6-37.7c-22.5-3.8-49.5,0-72.2,0H0v-24.9h246.5
	c22.7,0,49.8-3.8,72.2,0c22.8,3.8,24.2,20.5,35.6,37.7c15.6,23.6,41.3,17.3,66.6,17.3h171.3V390.7z"/>
<path d="M95.1,143.2H83.2v12c-0.1,8.1-3,14.1-7.6,14.1h7.6c4.8,0,7.1,0,11.9,0L95.1,143.2L95.1,143.2z"/>
<path d="M206.3,44.2C206.3,44.2,206.3,44.2,206.3,44.2L206.3,30c0-8.2,3-14.3,7.6-14.3c-7.7,0-11.6,0-19.4,0v28.5
	c-6.3,0-14.4,0-22.6,0v12.1c8.2,0,16.3,0,22.6,0l0,0c4.7,0,7.1,0,11.8,0l0,0c9.1,0.4,13.1,6.8,13.1,17.2v7.1H232v-6.4
	C232.3,58.9,223.2,43.5,206.3,44.2L206.3,44.2z"/>
<path d="M219.4,111.6c0,9.4-3.3,15.5-10.8,16.9v12.2c15.2-1.6,24.3-14.8,23.4-29.8v-10.5h-12.6V111.6z"/>
<path d="M206.3,154.8v14.5h7.6C209.2,169.3,206.3,163.1,206.3,154.8z"/>
<path d="M213.8,93L213.8,93L213.8,93L213.8,93L213.8,93c-4.5,0-7.4-5.8-7.6-13.7V58.6h-11.7v70.1c-2.7,0-5.7,0-8.9,0l-13.8-31.9
	c1.3-2.3,3.1-3.8,5.3-3.8h0l0,0l0,0h0c-4.6,0-7.5-6-7.6-14V56.2l0,0V15.7h-11.7v28.5c-3.1,0-6.1,0-8.8,0c-4.1-9.5-8.2-19-12.3-28.5
	h-16.8v28.5c-2.4,0-4.9,0-7.5,0c-4.1-9.5-8.2-19-12.3-28.5H83.2c-3,0-4.6,0-7.6,0c4.6,0,7.5,6,7.6,14.1v14.4h0
	c-16.6,0-26.5,14.3-25.7,29.9v4.8c-0.1,8-3,14-7.6,14h0l0,0l0,0h0c4.6,0,7.5,6,7.6,14v3.9c-0.8,15.6,9,29.9,25.6,29.9
	c0,0,0.1,0,0.1,0l0,0c4.8,0,7.1,0,11.9,0l0,0c7.3,0,16.8,0,24.8,0v28.5h11.9v-26.6l0,0v-16.3l0,0v-10.5l5.8,12.8c-0.9,0-1.5,0-1.5,0
	c0,0-0.8,0-1.9,0v12.1c1.2,0,2,0,2,0c0.1,0,2.7,0,6.9,0v0h11.2c0,0,0,0,0,0c1.2,0,2.4,0,3.6,0v8.4c-1-2.4-1.6-3.6-2.6-6.1h-11.1
	c3.9,8.7,7.8,17.4,11.7,26.1h13.8v-51.1c1.9,4.2,2.8,6.3,4.7,10.5c-0.8,0-1.6,0-2.4,0v12.1c2.6,0,5.2,0,7.8,0c0,0,0,0,0,0h11.2
	c0,0,0,0,0,0c1.3,0,2.5,0,3.6,0v8.4c-1-2.4-1.6-3.6-2.6-6.1h-11.1c3.9,8.7,7.8,17.4,11.7,26.1h13.8v-62.6
	C206.5,98.8,209.3,93,213.8,93L213.8,93z M83.2,81.5c-0.7,6.5-3.4,11.2-7.4,11.2h0l0,0l0,0h0c4,0,6.7,4.6,7.4,11.2v24.8
	c0,0,0,0-0.1,0c-8.5-0.7-12.6-6.9-12.6-17.1V73.4c0-10.2,4-16.5,12.5-17.1c0,0,0.1,0,0.1,0V81.5L83.2,81.5z M119.9,61.6l-1.3-3
	h-12.5c4.2,9.4,8.4,18.7,12.6,28.1c-1.3,3.7-3.5,6-6.3,6h0l0,0l0,0h0c4.4,0,7.2,5.5,7.5,12.9v23.1c-8,0-17.5,0-24.8,0V59.6l0,0V43.3
	l0,0v-9.1c1.8,4,2.7,6,4.5,10c-0.7,0-1.4,0-2.2,0v12.1c1.4,0,2.9,0,4.5,0l0,0c6.3,0,9.4,0,15.7,0l0,0c0.8,0,1.5,0,2.3,0L119.9,61.6
	L119.9,61.6z M157.8,64.4c-1-2.3-1.5-3.5-2.5-5.8h-12.5c5,11.2,10,22.3,15,33.5v36.6c-3.2,0-6.2,0-8.9,0
	c-5.7-13.2-11.4-26.4-17.1-39.6V56.2h0.1V44.1h-0.1v-10c1.8,4,2.7,6,4.5,10H136c0,0-0.7,0-1.8,0v12.1c1.3,0,2.1,0,2.1,0
	c0.1,0,2.1,0,5.4,0c0,0,0,0,0,0h12.6l0,0c1.1,0,2.3,0,3.5,0L157.8,64.4L157.8,64.4z"/>
<path d="M256.6,84.8c1.9,0,2.3-0.9,2.7-1.9h1.6v15.5h-2.4V86.5h-1.9L256.6,84.8L256.6,84.8z"/>
<path d="M267.3,98.5c-2.4,0-3.8-1.4-3.8-3.9v-1.2c0-1.5,0.4-2.6,1.5-3.2c-1-0.5-1.5-1.6-1.5-3.1v-0.5c0-2.5,1.3-3.9,3.8-3.9
	s3.8,1.4,3.8,3.9V87c0,1.5-0.5,2.6-1.5,3.1c1.1,0.6,1.5,1.7,1.5,3.2v1.2C271.1,97,269.8,98.5,267.3,98.5z M266,87.5
	c0,1.2,0.6,1.6,1.4,1.6c0.8,0,1.4-0.4,1.4-1.6v-0.9c0-1.4-0.6-1.8-1.4-1.8c-0.8,0-1.4,0.4-1.4,1.8V87.5z M267.3,96.2
	c0.8,0,1.4-0.4,1.4-1.7v-1.4c0-1.2-0.5-1.7-1.4-1.7c-0.9,0-1.4,0.5-1.4,1.7v1.4C266,95.9,266.6,96.2,267.3,96.2z"/>
<path d="M13.4,84.9c-0.8,0-1.3,0.4-1.3,1.5V88H9.8v-1.5c0-2.5,1.2-3.9,3.6-3.9s3.6,1.4,3.6,3.9c0,4.9-4.8,6.7-4.8,9.2
	c0,0.1,0,0.2,0,0.3h4.6v2.2h-7v-1.9c0-4.5,4.8-5.3,4.8-9.8C14.6,85.2,14.1,84.9,13.4,84.9L13.4,84.9z"/>
<path d="M18.4,86.5c0-2.5,1.3-3.9,3.7-3.9s3.7,1.4,3.7,3.9v8c0,2.5-1.3,3.9-3.7,3.9s-3.7-1.4-3.7-3.9V86.5z M20.8,94.7
	c0,1.1,0.5,1.5,1.3,1.5c0.8,0,1.3-0.4,1.3-1.5v-8.3c0-1.1-0.5-1.5-1.3-1.5c-0.8,0-1.3,0.4-1.3,1.5V94.7z"/>
</svg>
